<?xml version="1.0" encoding="UTF-8"?>
<svg xmlns="http://www.w3.org/2000/svg" viewBox="0 0 1056 816" width="1056" height="816">
  <defs>
    <pattern id="concrete-stipple" patternUnits="userSpaceOnUse" width="10" height="10">
      <circle cx="2" cy="3" r="0.5" fill="#CCC"/><circle cx="7" cy="8" r="0.5" fill="#CCC"/><circle cx="5" cy="1" r="0.5" fill="#CCC"/>
    </pattern>
    <pattern id="insulation-hatch" patternUnits="userSpaceOnUse" width="8" height="8">
      <path d="M0,8 L8,0" stroke="#999" stroke-width="0.5" fill="none"/>
    </pattern>
  </defs>
  <rect width="1056" height="816" fill="#FFFFFF"/>
  <text x="528" y="408" font-family="Arial, Helvetica, sans-serif" font-size="48" fill="#CCC" opacity="0.3" text-anchor="middle" transform="rotate(-25 528 408)">DRAFT FOR REVIEW</text>
  <text x="60" y="40" font-family="Arial, Helvetica, sans-serif" font-size="16" font-weight="bold" fill="#000">Barrett PMMA — Primary Roof Drain</text>
  <text x="60" y="58" font-family="Arial, Helvetica, sans-serif" font-size="11" fill="#333">Section Detail — Rendered from parametric geometry JSON</text>
  <rect x="120.0" y="413.0" width="500.0" height="180.0" fill="#F0F0F0" stroke="#000000" stroke-width="1.5"/>
  <rect x="120.0" y="413.0" width="500.0" height="180.0" fill="url(#concrete-stipple)" opacity="0.4"/>
  <rect x="120.0" y="353.0" width="500.0" height="60.0" fill="#E8E8E8" stroke="#000000" stroke-width="1"/>
  <rect x="120.0" y="353.0" width="500.0" height="60.0" fill="url(#insulation-hatch)" opacity="0.4"/>
  <circle cx="370.0" cy="433.0" r="30.0" fill="#E0E0E0" stroke="#000000" stroke-width="1"/>
  <circle cx="370.0" cy="353.0" r="120.0" fill="none" stroke="#333333" stroke-width="1.5"/>
  <rect x="350.0" y="333.0" width="40.0" height="10.0" fill="#E0E0E0" stroke="#000000" stroke-width="1"/>
  <text x="370.0" y="338.0" font-family="Arial, Helvetica, sans-serif" font-size="8" fill="#555" text-anchor="middle">Clamping Ring</text>
  <circle cx="370.0" cy="323.0" r="15.0" fill="#E0E0E0" stroke="#000000" stroke-width="1"/>
  <line x1="390.0" y1="353.0" x2="510.0" y2="353.0" stroke="#666" stroke-width="0.5" stroke-dasharray="3 2"/>
  <line x1="385.0" y1="353.0" x2="395.0" y2="353.0" stroke="#666" stroke-width="0.75"/>
  <line x1="505.0" y1="353.0" x2="515.0" y2="353.0" stroke="#666" stroke-width="0.75"/>
  <text x="460.0" y="353.0" font-family="Arial, Helvetica, sans-serif" font-size="9" fill="#000">4" MIN COLLAR</text>
  <text x="720" y="130" font-family="Arial, Helvetica, sans-serif" font-size="10" font-weight="bold" fill="#000">CALLOUT KEY</text>
  <line x1="720" y1="135" x2="920" y2="135" stroke="#000" stroke-width="0.5"/>
  <circle cx="220.0" cy="443.0" r="3" fill="#000"/>
  <line x1="220.0" y1="443.0" x2="710.0" y2="155.0" stroke="#000" stroke-width="0.5"/>
  <circle cx="726" cy="152" r="3" fill="#000"/>
  <text x="734" y="155" font-family="Arial, Helvetica, sans-serif" font-size="9" fill="#000"><tspan font-weight="bold">1.</tspan> Substrate</text>
  <circle cx="220.0" cy="383.0" r="3" fill="#000"/>
  <line x1="220.0" y1="383.0" x2="710.0" y2="175.0" stroke="#000" stroke-width="0.5"/>
  <circle cx="726" cy="172" r="3" fill="#000"/>
  <text x="734" y="175" font-family="Arial, Helvetica, sans-serif" font-size="9" fill="#000"><tspan font-weight="bold">2.</tspan> Tapered Insulation</text>
  <circle cx="370.0" cy="433.0" r="3" fill="#000"/>
  <line x1="370.0" y1="433.0" x2="710.0" y2="195.0" stroke="#000" stroke-width="0.5"/>
  <circle cx="726" cy="192" r="3" fill="#000"/>
  <text x="734" y="195" font-family="Arial, Helvetica, sans-serif" font-size="9" fill="#000"><tspan font-weight="bold">3.</tspan> Drain Body</text>
  <circle cx="480.0" cy="358.0" r="3" fill="#000"/>
  <line x1="480.0" y1="358.0" x2="710.0" y2="215.0" stroke="#000" stroke-width="0.5"/>
  <circle cx="726" cy="212" r="3" fill="#000"/>
  <text x="734" y="215" font-family="Arial, Helvetica, sans-serif" font-size="9" fill="#000"><tspan font-weight="bold">4.</tspan> Fleece Collar</text>
  <circle cx="395.0" cy="338.0" r="3" fill="#000"/>
  <line x1="395.0" y1="338.0" x2="710.0" y2="235.0" stroke="#000" stroke-width="0.5"/>
  <circle cx="726" cy="232" r="3" fill="#000"/>
  <text x="734" y="235" font-family="Arial, Helvetica, sans-serif" font-size="9" fill="#000"><tspan font-weight="bold">5.</tspan> Clamping Ring</text>
  <circle cx="370.0" cy="318.0" r="3" fill="#000"/>
  <line x1="370.0" y1="318.0" x2="710.0" y2="255.0" stroke="#000" stroke-width="0.5"/>
  <circle cx="726" cy="252" r="3" fill="#000"/>
  <text x="734" y="255" font-family="Arial, Helvetica, sans-serif" font-size="9" fill="#000"><tspan font-weight="bold">6.</tspan> Strainer Dome</text>
  <line x1="60" y1="760" x2="996" y2="760" stroke="#000" stroke-width="0.75"/>
  <text x="60" y="778" font-family="Arial, Helvetica, sans-serif" font-size="11" font-weight="bold" fill="#000">DETAIL ATLAS</text>
  <text x="190" y="778" font-family="Arial, Helvetica, sans-serif" font-size="9" fill="#333">CONSTRUCTION INTELLIGENCE</text>
  <text x="450" y="778" font-family="Arial, Helvetica, sans-serif" font-size="9" fill="#333">RamFlash PMMA | LF-DR-01</text>
  <text x="876" y="778" font-family="Arial, Helvetica, sans-serif" font-size="9" fill="#333">DRAFT | 2026-04-16</text>
  <text x="60" y="794" font-family="Arial, Helvetica, sans-serif" font-size="8" fill="#666">FAM-BARRETT-PMMA | barrett_pmma_primary_drain_001 | Parametric Renderer Output</text>
</svg>