<?xml version="1.0" encoding="UTF-8"?>
<svg xmlns="http://www.w3.org/2000/svg" viewBox="0 0 1056 816" width="1056" height="816">
  <defs>
    <pattern id="concrete-stipple" patternUnits="userSpaceOnUse" width="10" height="10">
      <circle cx="2" cy="3" r="0.5" fill="#CCC"/><circle cx="7" cy="8" r="0.5" fill="#CCC"/><circle cx="5" cy="1" r="0.5" fill="#CCC"/>
    </pattern>
    <pattern id="insulation-hatch" patternUnits="userSpaceOnUse" width="8" height="8">
      <path d="M0,8 L8,0" stroke="#999" stroke-width="0.5" fill="none"/>
    </pattern>
  </defs>
  <rect width="1056" height="816" fill="#FFFFFF"/>
  <text x="528" y="408" font-family="Arial, Helvetica, sans-serif" font-size="48" fill="#CCC" opacity="0.3" text-anchor="middle" transform="rotate(-25 528 408)">DRAFT FOR REVIEW</text>
  <text x="60" y="40" font-family="Arial, Helvetica, sans-serif" font-size="16" font-weight="bold" fill="#000">Barrett PMMA — Pipe Penetration</text>
  <text x="60" y="58" font-family="Arial, Helvetica, sans-serif" font-size="11" fill="#333">Section Detail — Rendered from parametric geometry JSON</text>
  <rect x="120.0" y="415.5" width="500.0" height="180.0" fill="#F0F0F0" stroke="#000000" stroke-width="1.5"/>
  <rect x="120.0" y="415.5" width="500.0" height="180.0" fill="url(#concrete-stipple)" opacity="0.4"/>
  <rect x="120.0" y="355.5" width="500.0" height="60.0" fill="#E8E8E8" stroke="#000000" stroke-width="1"/>
  <rect x="120.0" y="355.5" width="500.0" height="60.0" fill="url(#insulation-hatch)" opacity="0.4"/>
  <rect x="360.0" y="265.5" width="20.0" height="190.0" fill="#E0E0E0" stroke="#000000" stroke-width="1"/>
  <text x="370.0" y="360.5" font-family="Arial, Helvetica, sans-serif" font-size="8" fill="#555" text-anchor="middle">Pipe Sleeve</text>
  <line x1="340.0" y1="355.5" x2="340.0" y2="235.5" stroke="#333333" stroke-width="2"/>
  <line x1="400.0" y1="355.5" x2="400.0" y2="235.5" stroke="#333333" stroke-width="2"/>
  <rect x="355.0" y="230.5" width="30.0" height="5.0" fill="#E0E0E0" stroke="#000000" stroke-width="1"/>
  <text x="370.0" y="233.0" font-family="Arial, Helvetica, sans-serif" font-size="8" fill="#555" text-anchor="middle">Storm Collar</text>
  <line x1="430.0" y1="355.5" x2="430.0" y2="235.5" stroke="#666" stroke-width="0.5" stroke-dasharray="3 2"/>
  <line x1="425.0" y1="355.5" x2="435.0" y2="355.5" stroke="#666" stroke-width="0.75"/>
  <line x1="425.0" y1="235.5" x2="435.0" y2="235.5" stroke="#666" stroke-width="0.75"/>
  <text x="440.0" y="295.5" font-family="Arial, Helvetica, sans-serif" font-size="9" fill="#000">4" MIN</text>
  <text x="720" y="130" font-family="Arial, Helvetica, sans-serif" font-size="10" font-weight="bold" fill="#000">CALLOUT KEY</text>
  <line x1="720" y1="135" x2="920" y2="135" stroke="#000" stroke-width="0.5"/>
  <circle cx="220.0" cy="445.5" r="3" fill="#000"/>
  <line x1="220.0" y1="445.5" x2="710.0" y2="155.0" stroke="#000" stroke-width="0.5"/>
  <circle cx="726" cy="152" r="3" fill="#000"/>
  <text x="734" y="155" font-family="Arial, Helvetica, sans-serif" font-size="9" fill="#000"><tspan font-weight="bold">1.</tspan> Substrate</text>
  <circle cx="370.0" cy="305.5" r="3" fill="#000"/>
  <line x1="370.0" y1="305.5" x2="710.0" y2="175.0" stroke="#000" stroke-width="0.5"/>
  <circle cx="726" cy="172" r="3" fill="#000"/>
  <text x="734" y="175" font-family="Arial, Helvetica, sans-serif" font-size="9" fill="#000"><tspan font-weight="bold">2.</tspan> Pipe Sleeve</text>
  <circle cx="360.0" cy="345.5" r="3" fill="#000"/>
  <line x1="360.0" y1="345.5" x2="710.0" y2="195.0" stroke="#000" stroke-width="0.5"/>
  <circle cx="726" cy="192" r="3" fill="#000"/>
  <text x="734" y="195" font-family="Arial, Helvetica, sans-serif" font-size="9" fill="#000"><tspan font-weight="bold">3.</tspan> PMMA Fleece Boot</text>
  <circle cx="385.0" cy="233.5" r="3" fill="#000"/>
  <line x1="385.0" y1="233.5" x2="710.0" y2="215.0" stroke="#000" stroke-width="0.5"/>
  <circle cx="726" cy="212" r="3" fill="#000"/>
  <text x="734" y="215" font-family="Arial, Helvetica, sans-serif" font-size="9" fill="#000"><tspan font-weight="bold">4.</tspan> Storm Collar</text>
  <line x1="60" y1="760" x2="996" y2="760" stroke="#000" stroke-width="0.75"/>
  <text x="60" y="778" font-family="Arial, Helvetica, sans-serif" font-size="11" font-weight="bold" fill="#000">DETAIL ATLAS</text>
  <text x="190" y="778" font-family="Arial, Helvetica, sans-serif" font-size="9" fill="#333">CONSTRUCTION INTELLIGENCE</text>
  <text x="450" y="778" font-family="Arial, Helvetica, sans-serif" font-size="9" fill="#333">RamFlash PMMA | LF-PP-01</text>
  <text x="876" y="778" font-family="Arial, Helvetica, sans-serif" font-size="9" fill="#333">DRAFT | 2026-04-16</text>
  <text x="60" y="794" font-family="Arial, Helvetica, sans-serif" font-size="8" fill="#666">FAM-BARRETT-PMMA | barrett_pmma_pipe_penetration_001 | Parametric Renderer Output</text>
</svg>