<?xml version="1.0" encoding="UTF-8"?>
<svg xmlns="http://www.w3.org/2000/svg" viewBox="0 0 1056 816" width="1056" height="816">
  <defs>
    <pattern id="concrete-stipple" patternUnits="userSpaceOnUse" width="10" height="10">
      <circle cx="2" cy="3" r="0.5" fill="#CCC"/><circle cx="7" cy="8" r="0.5" fill="#CCC"/><circle cx="5" cy="1" r="0.5" fill="#CCC"/>
    </pattern>
    <pattern id="insulation-hatch" patternUnits="userSpaceOnUse" width="8" height="8">
      <path d="M0,8 L8,0" stroke="#999" stroke-width="0.5" fill="none"/>
    </pattern>
  </defs>
  <rect width="1056" height="816" fill="#FFFFFF"/>
  <text x="528" y="408" font-family="Arial, Helvetica, sans-serif" font-size="48" fill="#CCC" opacity="0.3" text-anchor="middle" transform="rotate(-25 528 408)">DRAFT FOR REVIEW</text>
  <text x="60" y="40" font-family="Arial, Helvetica, sans-serif" font-size="16" font-weight="bold" fill="#000">Barrett PMMA — Inside Corner Reinforcement</text>
  <text x="60" y="58" font-family="Arial, Helvetica, sans-serif" font-size="11" fill="#333">Section Detail — Rendered from parametric geometry JSON</text>
  <rect x="235.0" y="288.0" width="20.0" height="250.0" fill="#F0F0F0" stroke="#000000" stroke-width="1.5"/>
  <rect x="235.0" y="288.0" width="20.0" height="250.0" fill="url(#concrete-stipple)" opacity="0.4"/>
  <text x="245.0" y="413.0" font-family="Arial, Helvetica, sans-serif" font-size="8" fill="#555" text-anchor="middle">Vertical Surface</text>
  <rect x="255.0" y="518.0" width="250.0" height="20.0" fill="#F0F0F0" stroke="#000000" stroke-width="1.5"/>
  <rect x="255.0" y="518.0" width="250.0" height="20.0" fill="url(#concrete-stipple)" opacity="0.4"/>
  <text x="380.0" y="528.0" font-family="Arial, Helvetica, sans-serif" font-size="8" fill="#555" text-anchor="middle">Horizontal Surface</text>
  <line x1="255.0" y1="398.0" x2="255.0" y2="518.0" stroke="#333333" stroke-width="2"/>
  <line x1="255.0" y1="518.0" x2="375.0" y2="518.0" stroke="#333333" stroke-width="2"/>
  <line x1="258.0" y1="398.0" x2="258.0" y2="518.0" stroke="#333333" stroke-width="1.5" stroke-dasharray="4 2"/>
  <line x1="255.0" y1="515.0" x2="375.0" y2="515.0" stroke="#333333" stroke-width="1.5" stroke-dasharray="4 2"/>
  <line x1="245.0" y1="398.0" x2="245.0" y2="518.0" stroke="#666" stroke-width="0.5" stroke-dasharray="3 2"/>
  <line x1="240.0" y1="398.0" x2="250.0" y2="398.0" stroke="#666" stroke-width="0.75"/>
  <line x1="240.0" y1="518.0" x2="250.0" y2="518.0" stroke="#666" stroke-width="0.75"/>
  <text x="255.0" y="458.0" font-family="Arial, Helvetica, sans-serif" font-size="9" fill="#000">4" MIN</text>
  <line x1="275.0" y1="548.0" x2="395.0" y2="548.0" stroke="#666" stroke-width="0.5" stroke-dasharray="3 2"/>
  <line x1="270.0" y1="548.0" x2="280.0" y2="548.0" stroke="#666" stroke-width="0.75"/>
  <line x1="390.0" y1="548.0" x2="400.0" y2="548.0" stroke="#666" stroke-width="0.75"/>
  <text x="345.0" y="548.0" font-family="Arial, Helvetica, sans-serif" font-size="9" fill="#000">4" MIN</text>
  <text x="720" y="130" font-family="Arial, Helvetica, sans-serif" font-size="10" font-weight="bold" fill="#000">CALLOUT KEY</text>
  <line x1="720" y1="135" x2="920" y2="135" stroke="#000" stroke-width="0.5"/>
  <text x="60" y="716" font-family="Arial, Helvetica, sans-serif" font-size="8" fill="#333">NOTE: 3-STEP REINFORCEMENT: 1) Primer  2) Embed fleece in wet resin  3) Seal coat</text>
  <line x1="60" y1="760" x2="996" y2="760" stroke="#000" stroke-width="0.75"/>
  <text x="60" y="778" font-family="Arial, Helvetica, sans-serif" font-size="11" font-weight="bold" fill="#000">DETAIL ATLAS</text>
  <text x="190" y="778" font-family="Arial, Helvetica, sans-serif" font-size="9" fill="#333">CONSTRUCTION INTELLIGENCE</text>
  <text x="450" y="778" font-family="Arial, Helvetica, sans-serif" font-size="9" fill="#333">RamFlash PMMA | LF-IC-01</text>
  <text x="876" y="778" font-family="Arial, Helvetica, sans-serif" font-size="9" fill="#333">DRAFT | 2026-04-16</text>
  <text x="60" y="794" font-family="Arial, Helvetica, sans-serif" font-size="8" fill="#666">FAM-BARRETT-PMMA | barrett_pmma_inside_corner_001 | Parametric Renderer Output</text>
</svg>