<svg xmlns="http://www.w3.org/2000/svg" viewBox="0 0 1056 816" font-family="'JetBrains Mono', monospace">
  <defs>
    <marker id="arrow" markerWidth="8" markerHeight="6" refX="8" refY="3" orient="auto"><path d="M0,0 L8,3 L0,6" fill="none" stroke="#4A657D" stroke-width="1"/></marker>
    <marker id="arrowR" markerWidth="8" markerHeight="6" refX="0" refY="3" orient="auto"><path d="M8,0 L0,3 L8,6" fill="none" stroke="#4A657D" stroke-width="1"/></marker>
    <marker id="dot" markerWidth="6" markerHeight="6" refX="3" refY="3"><circle cx="3" cy="3" r="2" fill="#00E5FF"/></marker>
  </defs>

  <!-- Background -->
  <rect width="1056" height="816" fill="#0A0D11"/>

  <!-- DRAFT watermark -->
  <text x="528" y="450" text-anchor="middle" font-size="110" font-weight="bold" fill="#1A1D21" opacity="0.35" transform="rotate(-35,528,450)">DRAFT FOR REVIEW</text>

  <!-- Title Block -->
  <text x="40" y="45" font-size="14" font-weight="bold" fill="#00E5FF">Barrett PMMA — Parapet Wall Termination</text>
  <text x="40" y="65" font-size="10" fill="#B0B7BD">Detail 01 | DWG-PMMA-01 Rev A | Section Cut — Parapet to Roof Deck Transition</text>
  <line x1="40" y1="78" x2="1016" y2="78" stroke="#4A657D" stroke-width="1"/>

  <!-- ============ DRAWING AREA ============ -->

  <!-- Structural Concrete Deck (horizontal) -->
  <rect x="100" y="520" width="480" height="45" fill="#2C3136" stroke="#4A657D" stroke-width="1.5"/>
  <g stroke="#3A3F44" stroke-width="0.5" opacity="0.6">
    <line x1="110" y1="520" x2="130" y2="565"/><line x1="140" y1="520" x2="160" y2="565"/>
    <line x1="170" y1="520" x2="190" y2="565"/><line x1="200" y1="520" x2="220" y2="565"/>
    <line x1="230" y1="520" x2="250" y2="565"/><line x1="260" y1="520" x2="280" y2="565"/>
    <line x1="290" y1="520" x2="310" y2="565"/><line x1="320" y1="520" x2="340" y2="565"/>
    <line x1="350" y1="520" x2="370" y2="565"/><line x1="380" y1="520" x2="400" y2="565"/>
    <line x1="410" y1="520" x2="430" y2="565"/><line x1="440" y1="520" x2="460" y2="565"/>
    <line x1="470" y1="520" x2="490" y2="565"/><line x1="500" y1="520" x2="520" y2="565"/>
    <line x1="530" y1="520" x2="550" y2="565"/><line x1="560" y1="520" x2="575" y2="565"/>
  </g>

  <!-- Parapet Wall (vertical, right side) -->
  <rect x="490" y="130" width="65" height="435" fill="#2C3136" stroke="#4A657D" stroke-width="1.5"/>
  <g stroke="#3A3F44" stroke-width="0.5" opacity="0.6">
    <line x1="495" y1="140" x2="550" y2="180"/><line x1="495" y1="190" x2="550" y2="230"/>
    <line x1="495" y1="240" x2="550" y2="280"/><line x1="495" y1="290" x2="550" y2="330"/>
    <line x1="495" y1="340" x2="550" y2="380"/><line x1="495" y1="390" x2="550" y2="430"/>
    <line x1="495" y1="440" x2="550" y2="480"/><line x1="495" y1="490" x2="550" y2="530"/>
  </g>

  <!-- Rigid Insulation on deck -->
  <rect x="100" y="478" width="390" height="42" fill="#22262C" stroke="#4A657D" stroke-width="1"/>
  <g stroke="#2E3338" stroke-width="0.5">
    <line x1="110" y1="478" x2="130" y2="520"/><line x1="130" y1="478" x2="110" y2="520"/>
    <line x1="150" y1="478" x2="170" y2="520"/><line x1="170" y1="478" x2="150" y2="520"/>
    <line x1="190" y1="478" x2="210" y2="520"/><line x1="210" y1="478" x2="190" y2="520"/>
    <line x1="230" y1="478" x2="250" y2="520"/><line x1="250" y1="478" x2="230" y2="520"/>
    <line x1="270" y1="478" x2="290" y2="520"/><line x1="290" y1="478" x2="270" y2="520"/>
    <line x1="310" y1="478" x2="330" y2="520"/><line x1="330" y1="478" x2="310" y2="520"/>
    <line x1="350" y1="478" x2="370" y2="520"/><line x1="370" y1="478" x2="350" y2="520"/>
    <line x1="390" y1="478" x2="410" y2="520"/><line x1="410" y1="478" x2="390" y2="520"/>
    <line x1="430" y1="478" x2="450" y2="520"/><line x1="450" y1="478" x2="430" y2="520"/>
    <line x1="470" y1="478" x2="488" y2="520"/><line x1="488" y1="478" x2="470" y2="520"/>
  </g>

  <!-- Cant Strip at wall base (45 deg triangle) -->
  <polygon points="440,478 490,478 490,432" fill="#1A1D21" stroke="#4A657D" stroke-width="1.2"/>
  <line x1="445" y1="478" x2="490" y2="438" stroke="#2E3338" stroke-width="0.5"/>

  <!-- PMMA Primer coat — thin cyan line on deck + up wall -->
  <line x1="100" y1="476" x2="440" y2="476" stroke="#00E5FF" stroke-width="2" opacity="0.7"/>
  <line x1="440" y1="476" x2="488" y2="432" stroke="#00E5FF" stroke-width="2" opacity="0.7"/>
  <line x1="488" y1="432" x2="488" y2="278" stroke="#00E5FF" stroke-width="2" opacity="0.7"/>

  <!-- Fleece embedded in PMMA resin (orange dashed) -->
  <line x1="100" y1="473" x2="437" y2="473" stroke="#FF6B35" stroke-width="4" opacity="0.6"/>
  <line x1="437" y1="473" x2="485" y2="430" stroke="#FF6B35" stroke-width="4" opacity="0.6"/>
  <line x1="485" y1="430" x2="485" y2="282" stroke="#FF6B35" stroke-width="4" opacity="0.6"/>

  <!-- PMMA Seal coat — solid cyan, outermost -->
  <line x1="100" y1="470" x2="434" y2="470" stroke="#00E5FF" stroke-width="2.5"/>
  <line x1="434" y1="470" x2="482" y2="428" stroke="#00E5FF" stroke-width="2.5"/>
  <line x1="482" y1="428" x2="482" y2="286" stroke="#00E5FF" stroke-width="2.5"/>

  <!-- Termination Bar -->
  <rect x="476" y="282" width="18" height="6" rx="1" fill="#4A657D" stroke="#B0B7BD" stroke-width="1"/>
  <circle cx="481" cy="285" r="1.8" fill="#B0B7BD"/>
  <circle cx="489" cy="285" r="1.8" fill="#B0B7BD"/>

  <!-- Sealant bead above termination bar -->
  <ellipse cx="482" cy="277" rx="8" ry="4" fill="#4A657D" stroke="#B0B7BD" stroke-width="0.8" opacity="0.85"/>

  <!-- Metal Coping at top of parapet -->
  <path d="M470,130 L470,145 L490,152 L555,152 L575,145 L575,130 L570,118 L475,118 Z" fill="#2C3136" stroke="#B0B7BD" stroke-width="1.5"/>
  <line x1="472" y1="145" x2="468" y2="158" stroke="#B0B7BD" stroke-width="1"/>
  <line x1="573" y1="145" x2="577" y2="158" stroke="#B0B7BD" stroke-width="1"/>

  <!-- ============ DIMENSION LINES ============ -->

  <!-- 8" MIN flashing height (right side) -->
  <line x1="565" y1="286" x2="610" y2="286" stroke="#4A657D" stroke-width="0.6" stroke-dasharray="3,2"/>
  <line x1="565" y1="476" x2="610" y2="476" stroke="#4A657D" stroke-width="0.6" stroke-dasharray="3,2"/>
  <line x1="605" y1="290" x2="605" y2="472" stroke="#4A657D" stroke-width="0.8" marker-start="url(#arrowR)" marker-end="url(#arrow)"/>
  <text x="618" y="388" font-size="9" fill="#4A657D" transform="rotate(-90,618,388)" text-anchor="middle">8" MIN FLASH HT.</text>

  <!-- Insulation thickness -->
  <line x1="80" y1="478" x2="80" y2="520" stroke="#4A657D" stroke-width="0.6" stroke-dasharray="3,2"/>
  <line x1="75" y1="478" x2="85" y2="478" stroke="#4A657D" stroke-width="0.6"/>
  <line x1="75" y1="520" x2="85" y2="520" stroke="#4A657D" stroke-width="0.6"/>
  <text x="68" y="504" font-size="8" fill="#4A657D" transform="rotate(-90,68,504)" text-anchor="middle">INSUL.</text>

  <!-- ============ CALLOUT LEADERS ============ -->

  <!-- 1: Concrete Deck -->
  <circle cx="250" cy="542" r="3" fill="#00E5FF"/>
  <line x1="250" y1="542" x2="180" y2="590" stroke="#00E5FF" stroke-width="0.7"/>
  <line x1="180" y1="590" x2="105" y2="590" stroke="#00E5FF" stroke-width="0.7"/>
  <circle cx="92" cy="590" r="10" fill="none" stroke="#00E5FF" stroke-width="1"/>
  <text x="92" y="594" text-anchor="middle" font-size="9" font-weight="bold" fill="#00E5FF">1</text>

  <!-- 2: Rigid Insulation -->
  <circle cx="280" cy="499" r="3" fill="#00E5FF"/>
  <line x1="280" y1="499" x2="200" y2="620" stroke="#00E5FF" stroke-width="0.7"/>
  <line x1="200" y1="620" x2="105" y2="620" stroke="#00E5FF" stroke-width="0.7"/>
  <circle cx="92" cy="620" r="10" fill="none" stroke="#00E5FF" stroke-width="1"/>
  <text x="92" y="624" text-anchor="middle" font-size="9" font-weight="bold" fill="#00E5FF">2</text>

  <!-- 3: Cant Strip -->
  <circle cx="468" cy="458" r="3" fill="#00E5FF"/>
  <line x1="468" y1="458" x2="320" y2="650" stroke="#00E5FF" stroke-width="0.7"/>
  <line x1="320" y1="650" x2="105" y2="650" stroke="#00E5FF" stroke-width="0.7"/>
  <circle cx="92" cy="650" r="10" fill="none" stroke="#00E5FF" stroke-width="1"/>
  <text x="92" y="654" text-anchor="middle" font-size="9" font-weight="bold" fill="#00E5FF">3</text>

  <!-- 4: PMMA Primer -->
  <circle cx="488" cy="370" r="3" fill="#00E5FF"/>
  <line x1="488" y1="370" x2="380" y2="680" stroke="#00E5FF" stroke-width="0.7"/>
  <line x1="380" y1="680" x2="105" y2="680" stroke="#00E5FF" stroke-width="0.7"/>
  <circle cx="92" cy="680" r="10" fill="none" stroke="#00E5FF" stroke-width="1"/>
  <text x="92" y="684" text-anchor="middle" font-size="9" font-weight="bold" fill="#00E5FF">4</text>

  <!-- 5: Fleece Reinforcement -->
  <circle cx="485" cy="350" r="3" fill="#FF6B35"/>
  <line x1="485" y1="350" x2="380" y2="250" stroke="#FF6B35" stroke-width="0.7"/>
  <line x1="380" y1="250" x2="105" y2="250" stroke="#FF6B35" stroke-width="0.7"/>
  <circle cx="92" cy="250" r="10" fill="none" stroke="#FF6B35" stroke-width="1"/>
  <text x="92" y="254" text-anchor="middle" font-size="9" font-weight="bold" fill="#FF6B35">5</text>

  <!-- 6: PMMA Seal Coat -->
  <circle cx="482" cy="340" r="3" fill="#00E5FF"/>
  <line x1="482" y1="340" x2="370" y2="280" stroke="#00E5FF" stroke-width="0.7"/>
  <line x1="370" y1="280" x2="105" y2="280" stroke="#00E5FF" stroke-width="0.7"/>
  <circle cx="92" cy="280" r="10" fill="none" stroke="#00E5FF" stroke-width="1"/>
  <text x="92" y="284" text-anchor="middle" font-size="9" font-weight="bold" fill="#00E5FF">6</text>

  <!-- 7: Termination Bar + Sealant -->
  <circle cx="487" cy="285" r="3" fill="#00E5FF"/>
  <line x1="487" y1="285" x2="380" y2="200" stroke="#00E5FF" stroke-width="0.7"/>
  <line x1="380" y1="200" x2="105" y2="200" stroke="#00E5FF" stroke-width="0.7"/>
  <circle cx="92" cy="200" r="10" fill="none" stroke="#00E5FF" stroke-width="1"/>
  <text x="92" y="204" text-anchor="middle" font-size="9" font-weight="bold" fill="#00E5FF">7</text>

  <!-- 8: Metal Coping -->
  <circle cx="522" cy="135" r="3" fill="#00E5FF"/>
  <line x1="522" y1="135" x2="400" y2="135" stroke="#00E5FF" stroke-width="0.7"/>
  <line x1="400" y1="135" x2="105" y2="135" stroke="#00E5FF" stroke-width="0.7"/>
  <circle cx="92" cy="135" r="10" fill="none" stroke="#00E5FF" stroke-width="1"/>
  <text x="92" y="139" text-anchor="middle" font-size="9" font-weight="bold" fill="#00E5FF">8</text>

  <!-- ============ LEGEND / KEY (right side) ============ -->
  <rect x="660" y="100" width="370" height="370" fill="#0D1117" stroke="#4A657D" stroke-width="0.8" rx="3"/>
  <text x="680" y="126" font-size="12" font-weight="bold" fill="#00E5FF">COMPONENT KEY</text>
  <line x1="680" y1="136" x2="1010" y2="136" stroke="#4A657D" stroke-width="0.5"/>

  <circle cx="692" cy="162" r="10" fill="none" stroke="#00E5FF" stroke-width="1"/>
  <text x="692" y="166" text-anchor="middle" font-size="9" font-weight="bold" fill="#00E5FF">1</text>
  <text x="714" y="166" font-size="10" fill="#B0B7BD">Concrete Structural Deck</text>

  <circle cx="692" cy="192" r="10" fill="none" stroke="#00E5FF" stroke-width="1"/>
  <text x="692" y="196" text-anchor="middle" font-size="9" font-weight="bold" fill="#00E5FF">2</text>
  <text x="714" y="196" font-size="10" fill="#B0B7BD">Rigid Insulation (Polyiso)</text>

  <circle cx="692" cy="222" r="10" fill="none" stroke="#00E5FF" stroke-width="1"/>
  <text x="692" y="226" text-anchor="middle" font-size="9" font-weight="bold" fill="#00E5FF">3</text>
  <text x="714" y="226" font-size="10" fill="#B0B7BD">Cant Strip (45° Fillet)</text>

  <circle cx="692" cy="252" r="10" fill="none" stroke="#00E5FF" stroke-width="1"/>
  <text x="692" y="256" text-anchor="middle" font-size="9" font-weight="bold" fill="#00E5FF">4</text>
  <text x="714" y="256" font-size="10" fill="#B0B7BD">Barrett PMMA Primer Coat</text>

  <circle cx="692" cy="282" r="10" fill="none" stroke="#FF6B35" stroke-width="1"/>
  <text x="692" y="286" text-anchor="middle" font-size="9" font-weight="bold" fill="#FF6B35">5</text>
  <text x="714" y="286" font-size="10" fill="#B0B7BD">Polyester Fleece in PMMA Resin</text>

  <circle cx="692" cy="312" r="10" fill="none" stroke="#00E5FF" stroke-width="1"/>
  <text x="692" y="316" text-anchor="middle" font-size="9" font-weight="bold" fill="#00E5FF">6</text>
  <text x="714" y="316" font-size="10" fill="#B0B7BD">Barrett PMMA Seal Coat</text>

  <circle cx="692" cy="342" r="10" fill="none" stroke="#00E5FF" stroke-width="1"/>
  <text x="692" y="346" text-anchor="middle" font-size="9" font-weight="bold" fill="#00E5FF">7</text>
  <text x="714" y="346" font-size="10" fill="#B0B7BD">Termination Bar w/ Sealant</text>

  <circle cx="692" cy="372" r="10" fill="none" stroke="#00E5FF" stroke-width="1"/>
  <text x="692" y="376" text-anchor="middle" font-size="9" font-weight="bold" fill="#00E5FF">8</text>
  <text x="714" y="376" font-size="10" fill="#B0B7BD">Sheet Metal Coping w/ Drip Edge</text>

  <line x1="680" y1="396" x2="1010" y2="396" stroke="#4A657D" stroke-width="0.5"/>
  <text x="680" y="418" font-size="9" fill="#4A657D">COLOR KEY:</text>
  <line x1="680" y1="434" x2="710" y2="434" stroke="#00E5FF" stroke-width="2.5"/>
  <text x="720" y="438" font-size="9" fill="#4A657D">PMMA System</text>
  <line x1="820" y1="434" x2="850" y2="434" stroke="#FF6B35" stroke-width="3"/>
  <text x="860" y="438" font-size="9" fill="#4A657D">Fleece Reinforcement</text>
  <text x="680" y="460" font-size="9" fill="#4A657D">Parapet wall (CMU/concrete) shown in section</text>

  <!-- ============ BOTTOM BAR ============ -->
  <rect x="0" y="780" width="1056" height="36" fill="#0D1117"/>
  <line x1="0" y1="780" x2="1056" y2="780" stroke="#4A657D" stroke-width="1"/>
  <text x="40" y="802" font-size="10" fill="#4A657D" letter-spacing="2">DETAIL ATLAS | CONSTRUCTION INTELLIGENCE</text>
  <text x="1016" y="802" font-size="10" fill="#4A657D" text-anchor="end">2026-04-16</text>
  <text x="528" y="802" font-size="9" fill="#4A657D" text-anchor="middle">Barrett Roofing | PMMA Liquid-Applied Membrane System</text>
</svg>