<?xml version="1.0" encoding="UTF-8"?>
<svg xmlns="http://www.w3.org/2000/svg" viewBox="0 0 1056 816" width="1056" height="816">
  <defs>
    <style>
      .title { font-family: 'JetBrains Mono', monospace; font-size: 14px; font-weight: bold; fill: #00E5FF; }
      .label { font-family: 'JetBrains Mono', monospace; font-size: 10px; fill: #B0B7BD; }
      .dim { font-family: 'JetBrains Mono', monospace; font-size: 9px; fill: #4A657D; }
      .callout-num { font-family: 'JetBrains Mono', monospace; font-size: 11px; font-weight: bold; fill: #0A0D11; }
      .step-num { font-family: 'JetBrains Mono', monospace; font-size: 18px; font-weight: bold; fill: #00E5FF; }
      .step-label { font-family: 'JetBrains Mono', monospace; font-size: 12px; font-weight: bold; fill: #B0B7BD; }
      .watermark { font-family: 'JetBrains Mono', monospace; font-size: 60px; fill: #FF4444; opacity: 0.08; }
      .bottom-bar { font-family: 'JetBrains Mono', monospace; font-size: 9px; fill: #4A657D; }
      .bottom-bar-title { font-family: 'JetBrains Mono', monospace; font-size: 9px; fill: #00E5FF; }
    </style>
  </defs>

  <!-- Background -->
  <rect width="1056" height="816" fill="#0A0D11"/>

  <!-- DRAFT Watermark -->
  <text x="528" y="450" class="watermark" text-anchor="middle" transform="rotate(-30, 528, 450)">DRAFT</text>

  <!-- Title Block -->
  <text x="40" y="40" class="title">Barrett PMMA — Inside Corner Reinforcement</text>
  <line x1="40" y1="50" x2="480" y2="50" stroke="#00E5FF" stroke-width="1" opacity="0.4"/>
  <text x="40" y="68" class="label" opacity="0.6">3-STEP REINFORCEMENT AT INTERIOR ANGLE</text>

  <!-- Vertical wall (left wall going up) -->
  <rect x="200" y="150" width="40" height="350" fill="#1A1D21" stroke="#4A657D" stroke-width="1"/>
  <line x1="205" y1="160" x2="235" y2="160" stroke="#4A657D" stroke-width="0.3" opacity="0.3"/>
  <line x1="205" y1="180" x2="235" y2="180" stroke="#4A657D" stroke-width="0.3" opacity="0.3"/>
  <line x1="205" y1="200" x2="235" y2="200" stroke="#4A657D" stroke-width="0.3" opacity="0.3"/>
  <line x1="205" y1="220" x2="235" y2="220" stroke="#4A657D" stroke-width="0.3" opacity="0.3"/>
  <line x1="205" y1="240" x2="235" y2="240" stroke="#4A657D" stroke-width="0.3" opacity="0.3"/>
  <line x1="205" y1="260" x2="235" y2="260" stroke="#4A657D" stroke-width="0.3" opacity="0.3"/>
  <line x1="205" y1="280" x2="235" y2="280" stroke="#4A657D" stroke-width="0.3" opacity="0.3"/>
  <line x1="205" y1="300" x2="235" y2="300" stroke="#4A657D" stroke-width="0.3" opacity="0.3"/>
  <line x1="205" y1="320" x2="235" y2="320" stroke="#4A657D" stroke-width="0.3" opacity="0.3"/>
  <line x1="205" y1="340" x2="235" y2="340" stroke="#4A657D" stroke-width="0.3" opacity="0.3"/>
  <line x1="205" y1="360" x2="235" y2="360" stroke="#4A657D" stroke-width="0.3" opacity="0.3"/>
  <line x1="205" y1="380" x2="235" y2="380" stroke="#4A657D" stroke-width="0.3" opacity="0.3"/>
  <line x1="205" y1="400" x2="235" y2="400" stroke="#4A657D" stroke-width="0.3" opacity="0.3"/>
  <line x1="205" y1="420" x2="235" y2="420" stroke="#4A657D" stroke-width="0.3" opacity="0.3"/>
  <line x1="205" y1="440" x2="235" y2="440" stroke="#4A657D" stroke-width="0.3" opacity="0.3"/>
  <line x1="205" y1="460" x2="235" y2="460" stroke="#4A657D" stroke-width="0.3" opacity="0.3"/>
  <line x1="205" y1="480" x2="235" y2="480" stroke="#4A657D" stroke-width="0.3" opacity="0.3"/>

  <!-- Horizontal floor/wall -->
  <rect x="240" y="500" width="350" height="40" fill="#1A1D21" stroke="#4A657D" stroke-width="1"/>
  <line x1="260" y1="505" x2="260" y2="535" stroke="#4A657D" stroke-width="0.3" opacity="0.3"/>
  <line x1="280" y1="505" x2="280" y2="535" stroke="#4A657D" stroke-width="0.3" opacity="0.3"/>
  <line x1="300" y1="505" x2="300" y2="535" stroke="#4A657D" stroke-width="0.3" opacity="0.3"/>
  <line x1="320" y1="505" x2="320" y2="535" stroke="#4A657D" stroke-width="0.3" opacity="0.3"/>
  <line x1="340" y1="505" x2="340" y2="535" stroke="#4A657D" stroke-width="0.3" opacity="0.3"/>
  <line x1="360" y1="505" x2="360" y2="535" stroke="#4A657D" stroke-width="0.3" opacity="0.3"/>
  <line x1="380" y1="505" x2="380" y2="535" stroke="#4A657D" stroke-width="0.3" opacity="0.3"/>
  <line x1="400" y1="505" x2="400" y2="535" stroke="#4A657D" stroke-width="0.3" opacity="0.3"/>
  <line x1="420" y1="505" x2="420" y2="535" stroke="#4A657D" stroke-width="0.3" opacity="0.3"/>
  <line x1="440" y1="505" x2="440" y2="535" stroke="#4A657D" stroke-width="0.3" opacity="0.3"/>
  <line x1="460" y1="505" x2="460" y2="535" stroke="#4A657D" stroke-width="0.3" opacity="0.3"/>
  <line x1="480" y1="505" x2="480" y2="535" stroke="#4A657D" stroke-width="0.3" opacity="0.3"/>
  <line x1="500" y1="505" x2="500" y2="535" stroke="#4A657D" stroke-width="0.3" opacity="0.3"/>
  <line x1="520" y1="505" x2="520" y2="535" stroke="#4A657D" stroke-width="0.3" opacity="0.3"/>
  <line x1="540" y1="505" x2="540" y2="535" stroke="#4A657D" stroke-width="0.3" opacity="0.3"/>
  <line x1="560" y1="505" x2="560" y2="535" stroke="#4A657D" stroke-width="0.3" opacity="0.3"/>

  <!-- Corner fillet/radius -->
  <path d="M240,480 Q240,500 260,500" fill="none" stroke="#4A657D" stroke-width="1.5" stroke-dasharray="4,2"/>
  <text x="248" y="495" class="dim" font-size="8">R</text>

  <!-- STEP 1: PMMA PRIMER (cyan, innermost) -->
  <line x1="243" y1="350" x2="243" y2="480" stroke="#00E5FF" stroke-width="3" opacity="0.6"/>
  <path d="M243,480 Q243,497 260,497" fill="none" stroke="#00E5FF" stroke-width="3" opacity="0.6"/>
  <line x1="260" y1="497" x2="400" y2="497" stroke="#00E5FF" stroke-width="3" opacity="0.6"/>

  <!-- STEP 2: FLEECE IN RESIN (orange, middle) -->
  <line x1="247" y1="360" x2="247" y2="476" stroke="#FF6B35" stroke-width="2" stroke-dasharray="6,3"/>
  <path d="M247,476 Q247,493 264,493" fill="none" stroke="#FF6B35" stroke-width="2" stroke-dasharray="6,3"/>
  <line x1="264" y1="493" x2="390" y2="493" stroke="#FF6B35" stroke-width="2" stroke-dasharray="6,3"/>

  <!-- STEP 3: SEAL COAT (cyan, outermost) -->
  <line x1="251" y1="355" x2="251" y2="472" stroke="#00E5FF" stroke-width="3"/>
  <path d="M251,472 Q251,489 268,489" fill="none" stroke="#00E5FF" stroke-width="3"/>
  <line x1="268" y1="489" x2="395" y2="489" stroke="#00E5FF" stroke-width="3"/>

  <!-- 4 IN. MIN vertical dimension -->
  <line x1="230" y1="500" x2="190" y2="500" stroke="#4A657D" stroke-width="0.5" stroke-dasharray="3,2"/>
  <line x1="230" y1="360" x2="190" y2="360" stroke="#4A657D" stroke-width="0.5" stroke-dasharray="3,2"/>
  <line x1="195" y1="365" x2="195" y2="495" stroke="#4A657D" stroke-width="0.8" stroke-dasharray="4,2"/>
  <line x1="190" y1="500" x2="200" y2="500" stroke="#4A657D" stroke-width="1"/>
  <line x1="190" y1="360" x2="200" y2="360" stroke="#4A657D" stroke-width="1"/>
  <polygon points="195,368 192,376 198,376" fill="#4A657D"/>
  <polygon points="195,492 192,484 198,484" fill="#4A657D"/>
  <text x="185" y="435" class="dim" transform="rotate(-90, 185, 435)" text-anchor="middle">4 IN. MIN</text>

  <!-- 4 IN. MIN horizontal dimension -->
  <line x1="240" y1="510" x2="240" y2="555" stroke="#4A657D" stroke-width="0.5" stroke-dasharray="3,2"/>
  <line x1="395" y1="510" x2="395" y2="555" stroke="#4A657D" stroke-width="0.5" stroke-dasharray="3,2"/>
  <line x1="245" y1="550" x2="390" y2="550" stroke="#4A657D" stroke-width="0.8" stroke-dasharray="4,2"/>
  <line x1="240" y1="545" x2="240" y2="555" stroke="#4A657D" stroke-width="1"/>
  <line x1="395" y1="545" x2="395" y2="555" stroke="#4A657D" stroke-width="1"/>
  <polygon points="248,550 256,547 256,553" fill="#4A657D"/>
  <polygon points="387,550 379,547 379,553" fill="#4A657D"/>
  <text x="318" y="565" class="dim" text-anchor="middle">4 IN. MIN</text>

  <!-- STEP 1 callout -->
  <rect x="620" y="180" width="380" height="75" fill="#0A0D11" stroke="#00E5FF" stroke-width="1" rx="3" opacity="0.9"/>
  <text x="640" y="205" class="step-num">STEP 1</text>
  <text x="745" y="205" class="step-label">PMMA PRIMER</text>
  <text x="640" y="225" class="label">Apply Barrett PMMA primer to all</text>
  <text x="640" y="240" class="label">surfaces in corner area. Allow tack.</text>
  <line x1="620" y1="220" x2="400" y2="497" stroke="#00E5FF" stroke-width="0.5" stroke-dasharray="4,3"/>
  <circle cx="400" cy="497" r="4" fill="none" stroke="#00E5FF" stroke-width="1"/>

  <!-- STEP 2 callout -->
  <rect x="620" y="280" width="380" height="75" fill="#0A0D11" stroke="#FF6B35" stroke-width="1" rx="3" opacity="0.9"/>
  <text x="640" y="305" class="step-num" fill="#FF6B35">STEP 2</text>
  <text x="745" y="305" class="step-label">FLEECE IN RESIN</text>
  <text x="640" y="325" class="label">Embed fleece reinforcement into wet</text>
  <text x="640" y="340" class="label">PMMA resin. Saturate fully.</text>
  <line x1="620" y1="320" x2="390" y2="493" stroke="#FF6B35" stroke-width="0.5" stroke-dasharray="4,3"/>
  <circle cx="390" cy="493" r="4" fill="none" stroke="#FF6B35" stroke-width="1"/>

  <!-- STEP 3 callout -->
  <rect x="620" y="380" width="380" height="75" fill="#0A0D11" stroke="#00E5FF" stroke-width="1" rx="3" opacity="0.9"/>
  <text x="640" y="405" class="step-num">STEP 3</text>
  <text x="745" y="405" class="step-label">SEAL COAT</text>
  <text x="640" y="425" class="label">Apply PMMA seal coat over cured</text>
  <text x="640" y="440" class="label">reinforcement. Full coverage.</text>
  <line x1="620" y1="420" x2="395" y2="489" stroke="#00E5FF" stroke-width="0.5" stroke-dasharray="4,3"/>
  <circle cx="395" cy="489" r="4" fill="none" stroke="#00E5FF" stroke-width="1"/>

  <!-- Material Key -->
  <rect x="620" y="500" width="380" height="80" fill="#0A0D11" stroke="#4A657D" stroke-width="0.5" rx="2"/>
  <text x="640" y="525" class="title" font-size="11">MATERIAL KEY</text>
  <line x1="640" y1="532" x2="980" y2="532" stroke="#4A657D" stroke-width="0.5" opacity="0.4"/>
  <line x1="640" y1="550" x2="670" y2="550" stroke="#00E5FF" stroke-width="3"/>
  <text x="680" y="554" class="label">PMMA System (Primer / Seal Coat)</text>
  <line x1="640" y1="570" x2="670" y2="570" stroke="#FF6B35" stroke-width="2" stroke-dasharray="6,3"/>
  <text x="680" y="574" class="label">Fleece Reinforcement</text>

  <text x="265" y="475" class="dim" font-size="8">FILLET</text>

  <!-- Bottom Bar -->
  <rect x="0" y="786" width="1056" height="30" fill="#0A0D11" stroke="#4A657D" stroke-width="0.5"/>
  <text x="40" y="805" class="bottom-bar-title">DETAIL ATLAS | CONSTRUCTION INTELLIGENCE</text>
  <text x="1016" y="805" class="bottom-bar" text-anchor="end">Barrett PMMA Emergency Packet | 2026-04-16</text>
  <text x="528" y="805" class="dim" text-anchor="middle">CONDITION 06 — INSIDE CORNER REINFORCEMENT</text>
</svg>
